<svg width="710px" height="660px" xmlns="http://www.w3.org/2000/svg" viewBox="0 0 142.87 66.9">
    <defs>
        <style>.cls-1{fill:#fff;}</style>
    </defs>
    <title>logo_1</title>
    <g id="Ebene_2" data-name="Ebene 2">
        <g id="Layer_1" data-name="Layer 1">
            <path class="cls-1"
                  d="M28.91,35.43a11.58,11.58,0,0,0,1.42-1.53c.62-.73,1.19-1.41,1.76-2.15,1.08-1.42,2.1-2.89,3.23-4.31.45-.57.91-1.19,1.36-1.81C38,23.87,39.46,22.22,41,20.58c.57-.57,2.95-3.12,3.8-3.18.28,0,.22.51.17.69a2.38,2.38,0,0,1-.17.85c-.12.39-.17.79-.29,1.19v.11l-.11-.06c-.17-.05-.4-.17-.57-.22s-.34-.06-.51-.12c-.68,0-2.26,1.82-2.66,2.27a37.07,37.07,0,0,0-3.29,4L36,28c-.85,1.25-1.7,2.44-2.55,3.68-.62.86-1.19,1.71-1.87,2.56a15.27,15.27,0,0,1-1.31,1.47c6.3,2.44,23.36,6.46,28.86,2.49l.06,0c.05.11.05.79.17.9-6.69,5.28-26.76-.85-30.45-1.81a35.84,35.84,0,0,1-8.33,5.9A26.38,26.38,0,0,1,8.67,45.81a11.52,11.52,0,0,1-6.12-1.42A5.26,5.26,0,0,1,0,39.8C0,37,1.76,35,4.08,33.56a14.15,14.15,0,0,1,7.37-2.15,40.19,40.19,0,0,1,11,1.81l3.23,1c1.08.46,2.16.8,3.23,1.19m-1.36,1.42-4.48-1.36-2.77-.85A39.25,39.25,0,0,0,10.77,33a13,13,0,0,0-6.52,1.53,5.84,5.84,0,0,0-3.17,5.38c0,1.53,1.19,2.61,2.38,3.35a13.12,13.12,0,0,0,6.74,1.53,21.33,21.33,0,0,0,9.7-2.38A37.08,37.08,0,0,0,27.55,36.85ZM45.35,29c0,.74-.62.91-1.3.91S42.8,29.71,42.8,29s.63-1,1.25-1S45.35,28.23,45.35,29ZM55,33.17c-.28.22-.51.39-.79.62-.57.45-1.14.85-1.7,1.25a10.78,10.78,0,0,1-5.44,2.09A1.89,1.89,0,0,1,45,35.72a6.43,6.43,0,0,1-3,1.19,2.82,2.82,0,0,1-1.64-.51,1.7,1.7,0,0,1-.8-1.25,4.79,4.79,0,0,1,1.19-2.66,4.37,4.37,0,0,1,1.93-1.59h0c.23,0,.45.05.45.34s-.79,1.19-1,1.36a3.84,3.84,0,0,0-.91,2c0,.68.29,1.14,1,1.14a8.45,8.45,0,0,0,2.61-1.25,6,6,0,0,1,1.53-2.72A5.18,5.18,0,0,1,49.27,30a.9.9,0,0,1,.73.34,1,1,0,0,1,.34.68,1.69,1.69,0,0,1-.56,1.13c-.17.17-.4.29-.57.46s-.4.28-.57.45A10,10,0,0,1,47,34.19c-.23.17-.4.34-.63.51a1.22,1.22,0,0,0,.57.9,1.84,1.84,0,0,0,1.08.34c1.42,0,3.46-1.24,4.59-2,.45-.28.85-.62,1.3-.91.86-.62,1.71-1.25,2.56-1.93.34-.34.62-.73,1-1.13,1-1.19,2-2.38,3-3.63.51-.56,1-1.19,1.59-1.7.74-.79,1.53-1.59,2.33-2.38.51-.51,1.07-1,1.53-1.53a7.06,7.06,0,0,0,.51-.62h-.06a.58.58,0,0,1-.28-.23c-.17-.11-.46-.23-.46-.51s2.21-1,2.5-1.13h0c.22,0,.51,0,.57.34s-.4.68-.63.9a5.18,5.18,0,0,0-.74.74L66.5,21c-1.25,1.25-2.49,2.5-3.68,3.8-1.08,1.14-2.1,2.33-3.12,3.52S55.9,33,55.9,34.7a1.09,1.09,0,0,0,.4.9,1.23,1.23,0,0,0,1,.34c1.3,0,2.38-1.24,3.12-2.21A6.54,6.54,0,0,0,61.63,31c0-.45-.46-.51-.8-.56a1.44,1.44,0,0,0-1.13.73,2.71,2.71,0,0,0-.4.68c-.06.17-.11.4-.17.57a.7.7,0,0,0,.23.46c.11.05.34.22.34.39,0,.34-.4.4-.68.4-.68,0-.85-.51-.85-1.08a3.25,3.25,0,0,1,1.3-2.32,3.89,3.89,0,0,1,2.1-.91,1.34,1.34,0,0,1,.91.4,1,1,0,0,1,.39.85c0,1.3-1.3,3-2.1,4C59.58,35.94,57.94,37.3,56,37.3a1.62,1.62,0,0,1-1.82-1.75A6.43,6.43,0,0,1,55,33.17Zm20-.91-1.87,1.53c-.57.45-1.14.85-1.7,1.25a10.77,10.77,0,0,1-5.45,2.09,1.93,1.93,0,0,1-2.15-2.21,5.47,5.47,0,0,1,1.53-3.12c.68-.68,1.76-1.7,2.83-1.75a.9.9,0,0,1,.74.34,1,1,0,0,1,.34.68,1.69,1.69,0,0,1-.56,1.13c-.17.17-.4.29-.57.46s-.4.28-.57.45a11.31,11.31,0,0,1-2.27,1.47,1.36,1.36,0,0,0,.57,1.08A1.84,1.84,0,0,0,66.9,36c1.41,0,3.46-1.25,4.59-2,.45-.29.85-.63,1.3-.91.91-.68,1.82-1.31,2.72-2h0c.06,0,.18-.05.23-.05h0c.12-.06.23-.06.34-.12.57,0,1.08.23,1.08.85a6.36,6.36,0,0,1-1,1.59c-.23.34-.51.63-.74,1,0,0-.06,0-.12.11C77.1,33.28,80.67,31,82.15,31c.22,0,.28.29.34.46h0a8.45,8.45,0,0,1-1,1.19,3.34,3.34,0,0,0-.85,2c0,.85.74,1,1.42,1,1.42,0,4.59-2.38,6-3.4.23-.34.46-.74.68-1.08,1-1.53,2-3.06,3.12-4.59,2-2.89,7.88-11,11.91-11a1.62,1.62,0,0,1,1.08.39,1.36,1.36,0,0,1,.39,1c0,1.3-2.32,4-3.12,5a43.08,43.08,0,0,1-6.46,6.06c-1,.8-2.1,1.59-3.17,2.33a32.15,32.15,0,0,1-3,1.7l-.68.79,5-.05a.6.6,0,0,1,.68.68c0,.28-.46.39-.68.39L88.1,34C83.91,39.29,77.78,49.44,70.87,52.5a8.16,8.16,0,0,1-2.84.56,2.36,2.36,0,0,1-1.47-.45,1.43,1.43,0,0,1-.63-1.08c0-.56.34-.79.85-.79h.06a.47.47,0,0,1,.23.23,3.38,3.38,0,0,0,.68.56,3.2,3.2,0,0,0,.74.46,1.52,1.52,0,0,0,.68.17,4.27,4.27,0,0,0,1.47-.34,14.93,14.93,0,0,0,2-1c5.73-4,12.76-15.2,13.15-15.76a9.66,9.66,0,0,1-4.93,1.53c-1.25,0-1.76-.68-1.81-1.87,0-.29,0-.57,0-.85a5.51,5.51,0,0,1,.23-1c-.74.4-1.42.85-2.15,1.25s-1.65,1-2.44,1.53a19,19,0,0,1-2,1.19c-.05,0-.22-.11-.28-.11s-.23-.17-.23-.29a1.61,1.61,0,0,1,.29-.73,8.91,8.91,0,0,1,.85-1.31c.34-.51.68-1,1-1.47A6.68,6.68,0,0,0,75,32.26Zm46.2,2.32a1.35,1.35,0,0,0,.57,1,1.84,1.84,0,0,0,1.08.34c1.41,0,3.46-1.24,4.59-2,.45-.28.85-.62,1.3-.91s.8-.62,1.25-.91a2.5,2.5,0,0,1-.17-.39c0-.57.68-1.36,1-1.76a4.21,4.21,0,0,1,1-.79,1.91,1.91,0,0,1,.8-.34.67.67,0,0,1,.68.51,2.26,2.26,0,0,1-.8,1.47,3.15,3.15,0,0,1,.74-.11c.23-.06.4-.06.63-.12.51,0,1,.17,1,.74s-.85,1.53-1.3,1.93-1.2,1.13-1.25,1.76a1.16,1.16,0,0,0,.28.73,1.91,1.91,0,0,0,.8.34c1.58,0,3.68-1.3,5-2.09.46-.29,1-.68,1.42-1,.91-.68,1.82-1.36,2.72-2.1h.23a.26.26,0,0,1,.23.23v.17a.43.43,0,0,1-.12.23c-.9.73-1.75,1.47-2.66,2.15-.57.46-1.19.91-1.76,1.31a11.11,11.11,0,0,1-5.67,2.15,2.08,2.08,0,0,1-1.25-.51,2.05,2.05,0,0,1-.56-1.25,3.29,3.29,0,0,1,.85-1.64c.22-.28.51-.57.73-.85a6.51,6.51,0,0,0,.63-.68,1.07,1.07,0,0,0-.4.05c-.23.06-.45.06-.68.12a8,8,0,0,1-1.13.11h-.12a25,25,0,0,1-4.82,3.4,9.54,9.54,0,0,1-4,1.19,1.92,1.92,0,0,1-2.16-1.58A13,13,0,0,1,114,37.08a3.33,3.33,0,0,1-1.81-.46,8.93,8.93,0,0,1-1.08-1h0v-.23a11.61,11.61,0,0,1-5.21,1.42c-1.42,0-3-.28-3.8-1.59a10.42,10.42,0,0,1-5.11,1.87,1.93,1.93,0,0,1-2.15-2.21,5.47,5.47,0,0,1,1.53-3.12c.68-.68,1.76-1.7,2.84-1.75a.9.9,0,0,1,.73.34,1,1,0,0,1,.34.68,1.69,1.69,0,0,1-.56,1.13c-.17.17-.4.29-.57.46s-.4.28-.57.45a11.31,11.31,0,0,1-2.27,1.47,1.36,1.36,0,0,0,.57,1.08,1.84,1.84,0,0,0,1.08.34,9.07,9.07,0,0,0,3.85-1.53,5,5,0,0,1-.11-.85c0-2.5,1.64-5.39,3-7.43a37.28,37.28,0,0,1,6.57-7.37c1.59-1.36,4.2-3.34,6.35-3.34a1.67,1.67,0,0,1,1.25.51,1.62,1.62,0,0,1,.51,1.19c0,2.38-2.89,5.72-4.42,7.37a81.07,81.07,0,0,1-11.51,9.92c0,.51.56.85,1,1.08a4.11,4.11,0,0,0,2,.45,10,10,0,0,0,5.27-2,10.31,10.31,0,0,0,1-.74c1-.68,1.87-1.42,2.84-2.1a.36.36,0,0,1,.22-.05,3.44,3.44,0,0,1,1.08-.29c1,0,1.59.4,1.59,1.42a3.73,3.73,0,0,1-1,2.16A6.3,6.3,0,0,1,116,35.77a9.42,9.42,0,0,0,3.69-1.41,6.17,6.17,0,0,1,1.47-2.56c.68-.68,1.76-1.7,2.84-1.75a.9.9,0,0,1,.73.34,1,1,0,0,1,.34.68,1.69,1.69,0,0,1-.56,1.13c-.17.17-.4.29-.57.46s-.4.28-.57.45a10.71,10.71,0,0,1-2,1.3C121.32,34.47,121.21,34.53,121.15,34.58ZM46.43,33.39c.74-.51,1.42-1,2.1-1.47a2.5,2.5,0,0,0,.28-.57c0-.06-.22-.11-.34-.17-.45,0-1,.62-1.3.91a3.08,3.08,0,0,0-.74,1.3Zm21-2.21c-.46,0-1,.62-1.31.91a2.58,2.58,0,0,0-.79,1.36c.11,0,.34-.11.4-.11.62-.34,1.92-1.2,2-2C67.69,31.24,67.46,31.18,67.41,31.18ZM90,30.56c.46-.29.91-.63,1.36-.91.8-.51,1.65-1.08,2.5-1.59a31.18,31.18,0,0,0,6.4-5.5c1.14-1.24,3.57-4,3.57-5.72,0-.51-.56-.63-1-.63-.91,0-2.72,1.53-3.4,2.16a27.11,27.11,0,0,0-2.21,2.21c-.68.79-1.36,1.59-2,2.44-.79,1.07-1.58,2.21-2.32,3.34C91.9,27.72,90.94,29.14,90,30.56Zm13.27,2.83.51-.39a76,76,0,0,0,8.9-7.37,32.21,32.21,0,0,0,3.68-4.14,7.38,7.38,0,0,0,1.48-4c0-.91-.68-1.08-1.42-1a4.79,4.79,0,0,0-2,.73,16.75,16.75,0,0,0-2.78,2.16,26.09,26.09,0,0,0-2.89,2.78,22.62,22.62,0,0,0-2.33,2.94,20.09,20.09,0,0,0-2.27,4.48,14.94,14.94,0,0,0-.85,3.41C103.12,33.05,103.18,33.22,103.24,33.39Zm-4.82-2.21c-.45,0-1,.62-1.31.91a2.58,2.58,0,0,0-.79,1.36c.11,0,.34-.11.4-.11.62-.34,1.93-1.2,2-2C98.7,31.24,98.48,31.18,98.42,31.18Zm22.85,2.21c.34-.22.62-.45,1-.68s.79-.57,1.19-.91a2.3,2.3,0,0,0,.23-.51c0-.05-.23-.11-.34-.17-.46,0-1,.63-1.31.91A3.17,3.17,0,0,0,121.27,33.39Zm-9.53,1.48c.06,0,.06,0,.12.05a4.6,4.6,0,0,0,1.7.68,3.08,3.08,0,0,0,1.19-.28,2.79,2.79,0,0,0,1.07-.91,3.54,3.54,0,0,0,.63-1,5.15,5.15,0,0,0,.28-1,.61.61,0,0,0-.68-.69h-.34a.2.2,0,0,0-.17.06c-.68.57-1.42,1.14-2.1,1.7S112.31,34.47,111.74,34.87ZM104.2,45.3V42.86h.57V46.2H104l-1.13-2.43V46.2h-.57V42.86h.8Zm-8.5-1.93v.85H97v.57H95.7v.85h1.53v.56H95.07V42.86h2.16v.57H95.7ZM89.29,46.2V42.86h.57V46.2ZM83,45.64h1.42v.56h-2V42.86H83Zm-7.26.56V42.86h.57V46.2Zm-5.38-1.75a.85.85,0,0,1,.34.73c0,.74-.4,1-1.08,1H68.31V42.86h1.25c.63,0,1.08.28,1.08.91A1.28,1.28,0,0,1,70.36,44.45Zm-8.51,1.81c-1.13,0-1.36-.74-1.36-1.7s.23-1.76,1.36-1.76,1.36.8,1.36,1.76S63,46.26,61.85,46.26ZM53.8,45.18l.85-2.32h.8V46.2h-.57V44.05l-.74,2.1h-.57l-.73-2.1V46.2h-.57V42.86h.79Zm-8.45,0,.85-2.32H47V46.2h-.57V44.05l-.74,2.1h-.56l-.74-2.1V46.2h-.57V42.86h.8ZM38,46.2V42.86h.57V46.2Zm30.9-1.41v.85h.74c.34,0,.51-.12.51-.46s-.23-.39-.51-.39Zm0-1.42v.85h.68c.34,0,.46-.11.46-.45s-.17-.4-.46-.4Zm-7,2.32c.74,0,.74-.51.74-1.13s0-1.19-.74-1.19-.74.57-.74,1.19S61.11,45.69,61.85,45.69Z"/>
            <path class="cls-1"
                  d="M38.49,0h66.34V12.3h-1.14V1.13H39.06V12.3H37.93V0Zm2,2.32h62v10h-.39V2.72H40.65V12.3h-.4v-10Zm62,50V64.52H40.31V52.33h.4V64.18H102.1V52.33Zm2.33,0V66.9H37.93V52.33h1.13V65.76h64.63V52.33Z"/>
        </g>
    </g>
</svg>
