<?xml version="1.0" standalone="no"?>
<!DOCTYPE svg PUBLIC "-//W3C//DTD SVG 20010904//EN"
 "http://www.w3.org/TR/2001/REC-SVG-20010904/DTD/svg10.dtd">
<svg version="1.0" xmlns="http://www.w3.org/2000/svg"
 width="2167.000000pt" height="541.000000pt" viewBox="0 0 2167.000000 541.000000"
 preserveAspectRatio="xMidYMid meet">

<g transform="translate(0.000000,541.000000) scale(0.100000,-0.100000)"
fill="#000000" stroke="none">
<path d="M305 5100 l310 -310 -308 -308 -307 -307 0 -285 0 -285 310 -310 310
-310 -310 -310 -310 -310 0 -280 0 -280 310 -310 310 -310 -310 -310 -310
-310 0 -278 0 -277 282 0 283 0 307 307 308 308 308 -308 307 -307 285 0 285
0 307 307 308 308 303 -303 c166 -166 305 -302 310 -302 4 0 7 400 7 890 l0
890 -897 0 -898 0 308 -308 307 -307 -310 -310 -310 -310 0 623 0 622 282 0
283 0 307 307 308 308 310 -310 310 -310 -2 900 -3 900 -330 3 c-181 2 -584 0
-894 -4 l-563 -6 306 -307 306 -306 -310 -310 -310 -310 0 1523 0 1522 -902 0
-903 0 310 -310z m1182 -1182 c167 -167 303 -306 303 -310 0 -5 -274 -8 -610
-8 -335 0 -610 3 -610 7 0 9 602 613 610 613 3 0 141 -136 307 -302z m3 -1803
l305 -305 -615 0 -615 0 305 305 c168 168 307 305 310 305 3 0 142 -137 310
-305z"/>
<path d="M17451 4889 c-57 -11 -154 -57 -233 -110 -312 -210 -684 -654 -1227
-1467 -122 -183 -122 -183 -228 -261 -58 -44 -115 -83 -127 -89 -11 -5 -38
-17 -58 -25 -21 -9 -38 -23 -38 -30 0 -16 -136 -90 -216 -117 -65 -23 -110
-25 -165 -8 -72 21 -94 71 -72 157 15 62 37 101 102 185 25 32 54 69 64 81 10
13 14 30 11 40 -24 61 -321 -75 -663 -304 -47 -32 -92 -61 -99 -65 -8 -5 24
40 71 98 46 58 96 129 111 157 25 44 26 54 16 79 -15 37 -58 54 -115 47 -37
-5 -76 -31 -241 -154 -290 -215 -424 -296 -578 -348 -138 -46 -255 -25 -297
55 -30 56 -25 72 33 105 29 17 114 76 190 133 185 138 216 196 144 268 -28 28
-41 34 -78 34 -75 0 -161 -49 -258 -148 -133 -135 -190 -245 -190 -365 2 -153
67 -216 226 -217 232 0 481 127 869 444 77 63 105 80 89 54 -5 -7 -54 -80
-110 -163 -128 -189 -172 -270 -157 -293 22 -36 55 -25 188 61 179 115 546
339 550 335 2 -2 -3 -32 -10 -68 -33 -151 -9 -262 64 -304 90 -52 316 -1 503
114 33 20 61 30 89 30 37 0 40 -2 34 -22 -32 -105 -336 -506 -591 -779 -286
-307 -577 -521 -814 -600 -143 -47 -193 -37 -315 66 -73 62 -112 71 -139 33
-38 -54 -2 -127 84 -171 52 -27 60 -28 150 -23 121 6 216 33 358 101 230 110
422 256 673 511 262 265 400 425 631 725 l119 156 117 6 c64 4 194 9 287 12
94 3 189 8 213 11 l43 5 -3 42 -3 42 -277 3 c-153 1 -278 5 -278 9 0 3 25 51
56 107 l56 101 99 54 c319 173 691 463 1034 806 437 436 594 683 512 806 -41
62 -101 79 -206 58z m63 -70 c138 -63 -117 -482 -519 -853 -207 -191 -349
-299 -715 -542 -107 -72 -202 -134 -210 -139 -19 -12 -20 -13 234 355 378 548
431 616 676 860 273 274 429 366 534 319z m-3788 -1593 c9 -24 -23 -71 -88
-130 -60 -54 -162 -115 -174 -103 -22 21 70 156 145 213 47 36 107 46 117 20z"/>
<path d="M18892 4885 c-270 -59 -753 -455 -1105 -908 -201 -257 -360 -532
-426 -735 -31 -95 -42 -174 -40 -270 l2 -85 -74 -43 c-122 -71 -222 -107 -314
-111 -69 -3 -85 -1 -120 19 -40 23 -93 106 -81 127 3 5 30 23 59 39 66 37 285
200 321 238 75 81 33 194 -72 194 -123 0 -322 -174 -410 -359 -30 -63 -35 -84
-35 -145 0 -119 55 -206 140 -222 64 -12 213 3 295 30 79 26 241 103 290 137
l26 19 54 -53 c36 -36 73 -62 113 -78 55 -22 74 -24 225 -23 152 0 171 2 245
27 44 15 94 27 112 27 18 0 70 19 120 45 48 25 88 45 90 45 2 0 3 -6 3 -14 0
-19 90 -100 141 -127 35 -18 65 -24 145 -27 183 -7 359 29 546 112 l96 43 5
-26 c7 -34 45 -89 80 -115 22 -17 47 -22 113 -25 225 -9 495 118 839 393 114
92 121 96 168 96 26 0 79 5 118 11 38 6 74 9 79 7 6 -2 -33 -50 -86 -108 -127
-140 -148 -175 -142 -245 5 -60 38 -112 92 -147 48 -30 191 -21 316 21 189 64
344 160 636 392 194 155 214 173 214 196 0 34 -56 3 -224 -124 -338 -255 -545
-370 -724 -403 -55 -10 -67 -9 -106 9 -47 20 -76 60 -76 104 0 34 46 100 141
202 99 106 129 151 129 193 0 50 -34 66 -123 58 -40 -3 -88 -9 -107 -12 l-35
-6 31 33 c65 72 83 122 57 158 -43 62 -197 -28 -293 -172 -37 -55 -41 -67 -36
-104 l5 -41 -122 -90 c-160 -117 -246 -172 -354 -226 -136 -68 -205 -89 -290
-84 -62 3 -77 7 -110 34 -43 35 -68 91 -49 113 6 8 43 34 81 59 98 63 259 187
295 228 66 76 20 184 -79 184 -146 0 -373 -225 -444 -441 -6 -19 -162 -98
-252 -127 -33 -11 -85 -25 -115 -30 l-54 -10 51 44 c116 100 203 249 203 347
0 102 -44 147 -144 147 -90 0 -141 -26 -350 -184 -304 -227 -463 -315 -639
-353 -176 -37 -378 19 -432 120 -18 35 -19 39 -4 47 40 23 427 319 549 420
383 317 746 688 943 963 81 113 163 284 178 371 18 108 -13 180 -95 217 -48
22 -97 23 -184 4z m61 -86 c59 -16 80 -57 74 -144 -10 -139 -83 -302 -212
-470 -114 -150 -406 -444 -681 -685 -158 -140 -290 -250 -299 -250 -4 0 -83
-56 -175 -125 -93 -69 -173 -125 -178 -125 -50 0 11 277 113 515 143 334 401
668 747 969 299 259 479 352 611 315z m-1947 -1574 c10 -25 -15 -72 -61 -114
-55 -50 -142 -108 -177 -116 -28 -7 -28 -7 -16 26 20 61 117 177 173 207 29
16 75 14 81 -3z m2642 -8 c6 -32 -24 -63 -142 -146 -63 -45 -117 -81 -120 -81
-2 0 -1 14 4 30 16 55 118 177 175 209 30 16 79 10 83 -12z m-744 -70 c60 -71
-67 -289 -208 -357 -79 -38 -145 -33 -244 15 l-82 41 75 53 c41 29 134 102
207 162 73 59 142 110 153 112 36 8 80 -4 99 -26z"/>
<path d="M11233 4669 c-87 -43 -251 -201 -508 -490 -165 -186 -263 -309 -545
-689 -236 -318 -415 -546 -513 -654 l-53 -58 -220 72 c-769 252 -1167 334
-1619 334 -166 0 -217 -4 -301 -22 -143 -31 -243 -65 -369 -126 -152 -74 -256
-146 -350 -241 -139 -141 -195 -261 -203 -438 -9 -196 32 -313 152 -433 184
-184 480 -259 919 -234 690 40 1251 284 1863 810 63 54 120 97 127 95 7 -2
127 -40 267 -84 731 -229 1007 -312 1106 -331 130 -26 391 -36 538 -22 92 9
108 14 212 66 117 59 155 89 137 107 -6 6 -36 -3 -89 -28 -70 -34 -89 -38
-174 -41 -262 -11 -660 85 -1458 349 l-423 141 56 59 c77 84 144 174 370 499
109 157 234 335 278 395 223 307 545 663 650 719 35 19 37 20 93 2 31 -10 60
-14 64 -9 17 18 51 210 43 242 l-8 31 -42 -21z m-3276 -1634 c294 -38 538 -96
1088 -262 231 -69 422 -128 425 -130 9 -9 -217 -201 -380 -324 -407 -306 -796
-470 -1234 -520 -147 -17 -456 -6 -579 20 -236 51 -389 118 -496 217 -97 90
-124 148 -129 274 -15 370 256 635 735 719 138 25 404 27 570 6z"/>
<path d="M13643 4561 c-113 -42 -156 -66 -150 -84 2 -7 19 -22 38 -35 19 -13
35 -27 37 -32 2 -6 -101 -117 -230 -248 -283 -289 -325 -336 -606 -671 l-221
-264 -208 -153 c-324 -239 -503 -332 -654 -342 -63 -4 -82 -1 -117 17 -44 23
-82 72 -82 106 0 14 25 37 78 74 211 148 301 222 323 267 25 54 20 84 -22 127
-28 27 -34 29 -83 24 -76 -8 -150 -49 -234 -131 -89 -86 -165 -196 -189 -274
-10 -31 -24 -62 -33 -69 -42 -33 -213 -114 -251 -119 -52 -6 -104 20 -119 62
-26 67 7 175 81 270 116 146 126 174 64 174 -92 0 -280 -229 -315 -385 -19
-87 20 -155 116 -203 99 -50 207 -34 358 53 44 25 81 45 83 45 1 0 10 -17 18
-37 9 -21 23 -46 33 -57 70 -78 266 -74 470 10 152 63 247 124 541 349 l26 20
-23 -36 c-72 -117 -95 -281 -49 -350 32 -48 79 -69 157 -69 188 0 375 122 553
359 170 227 206 370 109 436 -79 54 -203 18 -320 -90 -75 -69 -106 -131 -107
-211 0 -82 20 -106 84 -102 58 4 64 25 22 73 -30 34 -30 35 -16 81 26 86 98
167 162 180 41 8 101 -18 108 -49 27 -107 -197 -444 -343 -518 -31 -15 -70
-25 -112 -27 -55 -3 -70 0 -100 20 -19 13 -44 41 -54 62 -17 35 -18 46 -8 95
50 236 398 683 1024 1317 175 177 318 328 318 336 0 19 -20 38 -39 38 -9 -1
-62 -18 -118 -39z m-1925 -1329 c9 -7 10 -16 1 -41 -9 -24 -40 -52 -131 -117
-66 -47 -122 -83 -125 -80 -21 21 72 158 145 213 42 32 83 41 110 25z"/>
<path d="M11128 3541 c-53 -42 -45 -121 17 -146 64 -27 165 -13 185 25 16 30
11 86 -9 111 -16 20 -30 24 -92 27 -64 3 -78 1 -101 -17z"/>
<path d="M6765 1141 c-46 -12 -107 -46 -136 -78 -51 -54 -72 -111 -77 -204 -8
-159 39 -253 152 -309 62 -31 70 -32 153 -28 145 7 218 61 247 181 l6 27 -65
0 c-53 0 -65 -3 -65 -16 0 -8 -13 -28 -28 -44 -34 -34 -103 -48 -155 -31 -159
53 -155 349 5 389 74 19 156 -14 174 -70 4 -15 16 -18 69 -18 l63 0 -7 33
c-13 54 -40 96 -82 126 -60 44 -170 62 -254 42z"/>
<path d="M8430 1137 c-83 -23 -149 -82 -187 -167 -12 -24 -17 -66 -17 -135 -1
-90 2 -106 27 -157 52 -107 141 -158 272 -158 88 0 150 20 203 66 118 100 137
327 39 456 -66 86 -218 129 -337 95z m178 -124 c42 -20 81 -86 89 -152 13
-112 -50 -213 -142 -226 -123 -19 -216 84 -202 222 15 145 129 214 255 156z"/>
<path d="M11825 1141 c-90 -23 -136 -75 -143 -158 -5 -64 9 -103 54 -143 32
-27 55 -36 224 -83 81 -23 87 -90 12 -117 -35 -12 -49 -12 -89 -2 -51 14 -83
37 -83 59 0 10 -18 13 -71 13 l-71 0 7 -32 c11 -53 44 -96 93 -125 39 -23 60
-28 138 -31 102 -5 148 6 195 45 43 36 59 74 59 138 0 105 -38 140 -194 179
-116 29 -146 46 -146 85 0 42 32 65 89 65 53 0 100 -24 108 -55 5 -16 15 -19
69 -19 72 0 75 4 49 67 -20 48 -41 71 -89 95 -43 22 -161 33 -211 19z"/>
<path d="M21297 1136 c-76 -21 -127 -64 -166 -139 -31 -60 -34 -74 -35 -154
-1 -117 21 -181 83 -243 58 -58 118 -80 218 -80 163 0 252 85 269 258 l7 72
-142 0 -141 0 0 -50 0 -50 76 0 76 0 -7 -27 c-30 -122 -226 -121 -285 2 -25
52 -29 155 -7 206 32 74 116 118 188 99 44 -12 85 -43 94 -70 5 -17 15 -20 66
-20 58 0 59 0 59 28 0 46 -50 114 -109 145 -63 35 -169 45 -244 23z"/>
<path d="M9970 830 l0 -310 65 0 65 0 2 201 3 201 143 -201 144 -201 59 0 59
0 0 310 0 310 -60 0 -60 0 -2 -202 -3 -203 -143 203 -144 202 -64 0 -64 0 0
-310z"/>
<path d="M13302 913 c3 -211 5 -231 25 -268 50 -93 112 -125 240 -125 103 0
152 18 200 73 53 61 63 114 63 344 l0 203 -59 0 -59 0 -4 -197 c-3 -155 -8
-206 -20 -235 -44 -100 -192 -104 -245 -6 -14 28 -18 66 -21 236 l-4 202 -60
0 -59 0 3 -227z"/>
<path d="M15000 830 l0 -310 215 0 215 0 0 55 0 54 -147 3 -148 3 -3 253 -2
252 -65 0 -65 0 0 -310z"/>
<path d="M16480 1085 l0 -55 95 0 95 0 0 -255 0 -255 65 0 65 0 0 255 0 255
95 0 95 0 0 55 0 55 -255 0 -255 0 0 -55z"/>
<path d="M18110 830 l0 -310 60 0 60 0 0 310 0 310 -60 0 -60 0 0 -310z"/>
<path d="M19410 830 l0 -310 65 0 65 0 2 199 3 199 140 -196 141 -197 62 -3
62 -3 0 311 0 310 -60 0 -60 0 0 -200 c0 -110 -3 -200 -7 -200 -5 1 -71 91
-148 200 l-139 200 -63 0 -63 0 0 -310z"/>
</g>
</svg>
